<?xml version="1.0" standalone="no"?>
<!DOCTYPE svg PUBLIC "-//W3C//DTD SVG 20010904//EN"
 "http://www.w3.org/TR/2001/REC-SVG-20010904/DTD/svg10.dtd">
<svg version="1.0" xmlns="http://www.w3.org/2000/svg"
 width="200.000000pt" height="200.000000pt" viewBox="0 0 200.000000 200.000000"
 preserveAspectRatio="xMidYMid meet">
<metadata>
Created by potrace 1.11, written by Peter Selinger 2001-2013
</metadata>
<g transform="translate(0.000000,200.000000) scale(0.100000,-0.100000)"
fill="#000000" stroke="none">
<path d="M928 1991 c-34 -11 -85 -47 -116 -81 -30 -31 -72 -123 -72 -154 l0
-23 260 0 c296 0 276 -7 240 90 -23 61 -81 126 -136 152 -43 20 -136 28 -176
16z"/>
<path d="M171 1909 c-49 -46 -47 -122 5 -156 l24 -15 0 -204 0 -205 28 5 c15
2 30 5 33 5 3 1 6 89 6 196 l0 196 31 30 c25 25 32 40 32 71 0 82 -101 131
-159 77z"/>
<path d="M582 1651 c-26 -9 -62 -27 -78 -40 -38 -29 -81 -94 -94 -140 -6 -22
-10 -227 -10 -521 l0 -485 587 2 c324 1 594 2 601 2 10 1 12 98 10 504 -3 501
-3 502 -26 545 -30 55 -76 100 -132 126 -43 20 -62 21 -427 22 -331 1 -389 -1
-431 -15z m269 -344 c53 -36 79 -82 79 -142 0 -170 -231 -226 -307 -75 -13 24
-23 60 -23 80 0 46 36 108 79 137 47 32 125 32 172 0z m458 7 c47 -23 82 -75
87 -131 11 -103 -77 -191 -180 -179 -158 18 -201 213 -67 303 41 28 112 31
160 7z m22 -521 c1 -13 1 -86 0 -108 -1 -20 -8 -20 -331 -20 -323 0 -330 0
-331 20 -1 24 -1 97 0 108 1 9 661 9 662 0z"/>
<path d="M720 1251 c-44 -23 -64 -72 -46 -115 16 -39 58 -69 95 -68 103 3 133
139 41 187 -37 19 -48 19 -90 -4z"/>
<path d="M1187 1253 c-28 -14 -54 -57 -52 -83 1 -8 3 -23 3 -33 3 -33 51 -67
94 -67 85 0 131 102 73 164 -13 14 -30 27 -37 27 -7 1 -22 3 -34 4 -12 1 -33
-4 -47 -12z"/>
<path d="M170 1261 c-40 -9 -77 -39 -91 -73 -9 -21 -13 -83 -13 -192 1 -181 9
-212 67 -243 39 -21 197 -29 198 -10 3 45 4 495 1 508 -3 12 -18 15 -70 15
-37 1 -78 -2 -92 -5z"/>
<path d="M1668 1247 c-2 -12 -3 -132 -3 -267 l1 -245 80 -1 c99 -2 142 17 173
75 17 31 21 322 5 368 -13 36 -58 82 -84 84 -8 1 -49 3 -91 5 -72 2 -77 1 -81
-19z"/>
<path d="M133 270 c0 -110 2 -130 16 -134 9 -2 399 -3 866 -3 l850 2 0 130 0
130 -866 3 -866 2 0 -130z"/>
</g>
</svg>
